<svg xmlns="http://www.w3.org/2000/svg" xmlns:xlink="http://www.w3.org/1999/xlink" version="1.1" class="marks" width="377" height="310" viewBox="0 0 377 310"><rect width="377" height="310" fill="white"/><g fill="none" stroke-miterlimit="10" transform="translate(5,5)"><g class="mark-group role-frame root" role="graphics-object" aria-roledescription="group mark container"><g transform="translate(0,0)"><path class="background" aria-hidden="true" d="M0,0h300v300h-300Z"/><g><g class="mark-arc role-mark marks" role="graphics-object" aria-roledescription="arc mark container"><path aria-label="Sales: 5; Area: North" role="graphics-symbol" aria-roledescription="arc mark" transform="translate(150,150)" d="M-31.18675362266387,146.72214011007085A150,150,0,0,0,31.186753622663886,146.72214011007085L20.791169081775923,97.81476007338057A100,100,0,0,1,-20.791169081775912,97.81476007338057Z" fill="#e45756"/><path aria-label="Sales: 25; Area: East" role="graphics-symbol" aria-roledescription="arc mark" transform="translate(150,150)" d="M31.186753622663886,146.72214011007085A150,150,0,0,0,111.47172382160913,-100.36959095382873L74.31448254773943,-66.91306063588583A100,100,0,0,1,20.791169081775923,97.81476007338057Z" fill="#f58518"/><path aria-label="Sales: 15; Area: West" role="graphics-symbol" aria-roledescription="arc mark" transform="translate(150,150)" d="M-2.7554552980815446e-14,-150A150,150,0,0,0,-142.65847744427305,-46.35254915624209L-95.10565162951536,-30.901699437494727A100,100,0,0,1,-1.8369701987210297e-14,-100Z" fill="#54a24b"/><path aria-label="Sales: 20; Area: South" role="graphics-symbol" aria-roledescription="arc mark" transform="translate(150,150)" d="M-142.65847744427305,-46.35254915624209A150,150,0,0,0,-31.18675362266387,146.72214011007085L-20.791169081775912,97.81476007338057A100,100,0,0,1,-95.10565162951536,-30.901699437494727Z" fill="#72b7b2"/><path aria-label="Sales: 10; Area: Central" role="graphics-symbol" aria-roledescription="arc mark" transform="translate(150,150)" d="M111.47172382160913,-100.36959095382873A150,150,0,0,0,9.184850993605149e-15,-150L6.123233995736766e-15,-100A100,100,0,0,1,74.31448254773943,-66.91306063588583Z" fill="#4c78a8"/></g><g class="mark-group role-legend" role="graphics-symbol" aria-roledescription="legend" aria-label="Symbol legend titled 'Area' for fill color with 5 values: Central, East, North, South, West"><g transform="translate(318,0)"><path class="background" aria-hidden="true" d="M0,0h49v79h-49Z" pointer-events="none"/><g><g class="mark-group role-legend-entry"><g transform="translate(0,16)"><path class="background" aria-hidden="true" d="M0,0h0v0h0Z" pointer-events="none"/><g><g class="mark-group role-scope" role="graphics-object" aria-roledescription="group mark container"><g transform="translate(0,0)"><path class="background" aria-hidden="true" d="M0,0h48.236328125v11h-48.236328125Z" pointer-events="none" opacity="1"/><g><g class="mark-symbol role-legend-symbol" pointer-events="none"><path transform="translate(6,6)" d="M5,0A5,5,0,1,1,-5,0A5,5,0,1,1,5,0" fill="#4c78a8" stroke-width="1.5" opacity="1"/></g><g class="mark-text role-legend-label" pointer-events="none"><text text-anchor="start" transform="translate(16,9)" font-family="sans-serif" font-size="10px" fill="#000" opacity="1">Central</text></g></g><path class="foreground" aria-hidden="true" d="" pointer-events="none" display="none"/></g><g transform="translate(0,13)"><path class="background" aria-hidden="true" d="M0,0h48.236328125v11h-48.236328125Z" pointer-events="none" opacity="1"/><g><g class="mark-symbol role-legend-symbol" pointer-events="none"><path transform="translate(6,6)" d="M5,0A5,5,0,1,1,-5,0A5,5,0,1,1,5,0" fill="#f58518" stroke-width="1.5" opacity="1"/></g><g class="mark-text role-legend-label" pointer-events="none"><text text-anchor="start" transform="translate(16,9)" font-family="sans-serif" font-size="10px" fill="#000" opacity="1">East</text></g></g><path class="foreground" aria-hidden="true" d="" pointer-events="none" display="none"/></g><g transform="translate(0,26)"><path class="background" aria-hidden="true" d="M0,0h48.236328125v11h-48.236328125Z" pointer-events="none" opacity="1"/><g><g class="mark-symbol role-legend-symbol" pointer-events="none"><path transform="translate(6,6)" d="M5,0A5,5,0,1,1,-5,0A5,5,0,1,1,5,0" fill="#e45756" stroke-width="1.5" opacity="1"/></g><g class="mark-text role-legend-label" pointer-events="none"><text text-anchor="start" transform="translate(16,9)" font-family="sans-serif" font-size="10px" fill="#000" opacity="1">North</text></g></g><path class="foreground" aria-hidden="true" d="" pointer-events="none" display="none"/></g><g transform="translate(0,39)"><path class="background" aria-hidden="true" d="M0,0h48.236328125v11h-48.236328125Z" pointer-events="none" opacity="1"/><g><g class="mark-symbol role-legend-symbol" pointer-events="none"><path transform="translate(6,6)" d="M5,0A5,5,0,1,1,-5,0A5,5,0,1,1,5,0" fill="#72b7b2" stroke-width="1.5" opacity="1"/></g><g class="mark-text role-legend-label" pointer-events="none"><text text-anchor="start" transform="translate(16,9)" font-family="sans-serif" font-size="10px" fill="#000" opacity="1">South</text></g></g><path class="foreground" aria-hidden="true" d="" pointer-events="none" display="none"/></g><g transform="translate(0,52)"><path class="background" aria-hidden="true" d="M0,0h48.236328125v11h-48.236328125Z" pointer-events="none" opacity="1"/><g><g class="mark-symbol role-legend-symbol" pointer-events="none"><path transform="translate(6,6)" d="M5,0A5,5,0,1,1,-5,0A5,5,0,1,1,5,0" fill="#54a24b" stroke-width="1.5" opacity="1"/></g><g class="mark-text role-legend-label" pointer-events="none"><text text-anchor="start" transform="translate(16,9)" font-family="sans-serif" font-size="10px" fill="#000" opacity="1">West</text></g></g><path class="foreground" aria-hidden="true" d="" pointer-events="none" display="none"/></g></g></g><path class="foreground" aria-hidden="true" d="" pointer-events="none" display="none"/></g></g><g class="mark-text role-legend-title" pointer-events="none"><text text-anchor="start" transform="translate(0,9)" font-family="sans-serif" font-size="11px" font-weight="bold" fill="#000" opacity="1">Area</text></g></g><path class="foreground" aria-hidden="true" d="" pointer-events="none" display="none"/></g></g></g><path class="foreground" aria-hidden="true" d="" display="none"/></g></g></g></svg>