<svg xmlns="http://www.w3.org/2000/svg" xmlns:xlink="http://www.w3.org/1999/xlink" version="1.1" class="marks" width="377" height="310" viewBox="0 0 377 310"><rect width="377" height="310" fill="white"/><g fill="none" stroke-miterlimit="10" transform="translate(5,5)"><g class="mark-group role-frame root" role="graphics-object" aria-roledescription="group mark container"><g transform="translate(0,0)"><path class="background" aria-hidden="true" d="M0,0h300v300h-300Z"/><g><g class="mark-arc role-mark layer_0_marks" role="graphics-object" aria-roledescription="arc mark container"><path aria-label="Profit: 2; Area: North" role="graphics-symbol" aria-roledescription="arc mark" transform="translate(150,150)" d="M-20.70552360820163,77.27406610312548A80,80,0,0,0,20.705523608201677,77.27406610312545L0,0Z" fill="#e45756"/><path aria-label="Profit: 8; Area: East" role="graphics-symbol" aria-roledescription="arc mark" transform="translate(150,150)" d="M20.705523608201677,77.27406610312545A80,80,0,0,0,56.568542494923804,-56.5685424949238L0,0Z" fill="#f58518"/><path aria-label="Profit: 6; Area: West" role="graphics-symbol" aria-roledescription="arc mark" transform="translate(150,150)" d="M-1.4695761589768237e-14,-80A80,80,0,0,0,-80,9.797174393178826e-15L0,0Z" fill="#54a24b"/><path aria-label="Profit: 5; Area: South" role="graphics-symbol" aria-roledescription="arc mark" transform="translate(150,150)" d="M-80,9.797174393178826e-15A80,80,0,0,0,-20.70552360820163,77.27406610312548L0,0Z" fill="#72b7b2"/><path aria-label="Profit: 3; Area: Central" role="graphics-symbol" aria-roledescription="arc mark" transform="translate(150,150)" d="M56.568542494923804,-56.5685424949238A80,80,0,0,0,4.898587196589413e-15,-80L0,0Z" fill="#4c78a8"/></g><g class="mark-text role-mark layer_1_marks" role="graphics-object" aria-roledescription="text mark container"><text aria-label="Profit: 2; Area: North" role="graphics-symbol" aria-roledescription="text mark" text-anchor="middle" transform="translate(150,263)" font-family="sans-serif" font-size="11px" fill="#e45756">North</text><text aria-label="Profit: 8; Area: East" role="graphics-symbol" aria-roledescription="text mark" text-anchor="middle" transform="translate(256.2518408917975,181.4700949612773)" font-family="sans-serif" font-size="11px" fill="#f58518">East</text><text aria-label="Profit: 6; Area: West" role="graphics-symbol" aria-roledescription="text mark" text-anchor="middle" transform="translate(72.21825406947976,75.21825406947978)" font-family="sans-serif" font-size="11px" fill="#54a24b">West</text><text aria-label="Profit: 5; Area: South" role="graphics-symbol" aria-roledescription="text mark" text-anchor="middle" transform="translate(62.73113256796414,219.9637571909593)" font-family="sans-serif" font-size="11px" fill="#72b7b2">South</text><text aria-label="Profit: 3; Area: Central" role="graphics-symbol" aria-roledescription="text mark" text-anchor="middle" transform="translate(192.09517756015987,51.37325142375846)" font-family="sans-serif" font-size="11px" fill="#4c78a8">Central</text></g><g class="mark-group role-legend" role="graphics-symbol" aria-roledescription="legend" aria-label="Symbol legend titled 'Area' for fill color with 5 values: Central, East, North, South, West"><g transform="translate(318,0)"><path class="background" aria-hidden="true" d="M0,0h49v79h-49Z" pointer-events="none"/><g><g class="mark-group role-legend-entry"><g transform="translate(0,16)"><path class="background" aria-hidden="true" d="M0,0h0v0h0Z" pointer-events="none"/><g><g class="mark-group role-scope" role="graphics-object" aria-roledescription="group mark container"><g transform="translate(0,0)"><path class="background" aria-hidden="true" d="M0,0h48.236328125v11h-48.236328125Z" pointer-events="none" opacity="1"/><g><g class="mark-symbol role-legend-symbol" pointer-events="none"><path transform="translate(6,6)" d="M5,0A5,5,0,1,1,-5,0A5,5,0,1,1,5,0" fill="#4c78a8" stroke-width="1.5" opacity="1"/></g><g class="mark-text role-legend-label" pointer-events="none"><text text-anchor="start" transform="translate(16,9)" font-family="sans-serif" font-size="10px" fill="#000" opacity="1">Central</text></g></g><path class="foreground" aria-hidden="true" d="" pointer-events="none" display="none"/></g><g transform="translate(0,13)"><path class="background" aria-hidden="true" d="M0,0h48.236328125v11h-48.236328125Z" pointer-events="none" opacity="1"/><g><g class="mark-symbol role-legend-symbol" pointer-events="none"><path transform="translate(6,6)" d="M5,0A5,5,0,1,1,-5,0A5,5,0,1,1,5,0" fill="#f58518" stroke-width="1.5" opacity="1"/></g><g class="mark-text role-legend-label" pointer-events="none"><text text-anchor="start" transform="translate(16,9)" font-family="sans-serif" font-size="10px" fill="#000" opacity="1">East</text></g></g><path class="foreground" aria-hidden="true" d="" pointer-events="none" display="none"/></g><g transform="translate(0,26)"><path class="background" aria-hidden="true" d="M0,0h48.236328125v11h-48.236328125Z" pointer-events="none" opacity="1"/><g><g class="mark-symbol role-legend-symbol" pointer-events="none"><path transform="translate(6,6)" d="M5,0A5,5,0,1,1,-5,0A5,5,0,1,1,5,0" fill="#e45756" stroke-width="1.5" opacity="1"/></g><g class="mark-text role-legend-label" pointer-events="none"><text text-anchor="start" transform="translate(16,9)" font-family="sans-serif" font-size="10px" fill="#000" opacity="1">North</text></g></g><path class="foreground" aria-hidden="true" d="" pointer-events="none" display="none"/></g><g transform="translate(0,39)"><path class="background" aria-hidden="true" d="M0,0h48.236328125v11h-48.236328125Z" pointer-events="none" opacity="1"/><g><g class="mark-symbol role-legend-symbol" pointer-events="none"><path transform="translate(6,6)" d="M5,0A5,5,0,1,1,-5,0A5,5,0,1,1,5,0" fill="#72b7b2" stroke-width="1.5" opacity="1"/></g><g class="mark-text role-legend-label" pointer-events="none"><text text-anchor="start" transform="translate(16,9)" font-family="sans-serif" font-size="10px" fill="#000" opacity="1">South</text></g></g><path class="foreground" aria-hidden="true" d="" pointer-events="none" display="none"/></g><g transform="translate(0,52)"><path class="background" aria-hidden="true" d="M0,0h48.236328125v11h-48.236328125Z" pointer-events="none" opacity="1"/><g><g class="mark-symbol role-legend-symbol" pointer-events="none"><path transform="translate(6,6)" d="M5,0A5,5,0,1,1,-5,0A5,5,0,1,1,5,0" fill="#54a24b" stroke-width="1.5" opacity="1"/></g><g class="mark-text role-legend-label" pointer-events="none"><text text-anchor="start" transform="translate(16,9)" font-family="sans-serif" font-size="10px" fill="#000" opacity="1">West</text></g></g><path class="foreground" aria-hidden="true" d="" pointer-events="none" display="none"/></g></g></g><path class="foreground" aria-hidden="true" d="" pointer-events="none" display="none"/></g></g><g class="mark-text role-legend-title" pointer-events="none"><text text-anchor="start" transform="translate(0,9)" font-family="sans-serif" font-size="11px" font-weight="bold" fill="#000" opacity="1">Area</text></g></g><path class="foreground" aria-hidden="true" d="" pointer-events="none" display="none"/></g></g></g><path class="foreground" aria-hidden="true" d="" display="none"/></g></g></g></svg>